<svg width="180" height="180" viewBox="0 0 180 180" xmlns="http://www.w3.org/2000/svg" role="img" aria-labelledby="title desc">
<title id="title">Premium gold fleur-de-lys emblem</title>
<desc id="desc">A rich gold fleur-de-lys with a subtle glow and star accents on transparent background.</desc>
<defs>
  <radialGradient id="g" cx="45%" cy="25%" r="75%">
    <stop offset="0" stop-color="#fff8c8"/>
    <stop offset=".22" stop-color="#f6d36d"/>
    <stop offset=".45" stop-color="#c7922e"/>
    <stop offset=".72" stop-color="#875a14"/>
    <stop offset="1" stop-color="#3d2608"/>
  </radialGradient>
  <linearGradient id="edge" x1="0" x2="1" y1="0" y2="1">
    <stop offset="0" stop-color="#fff7b2"/>
    <stop offset=".5" stop-color="#d39b2c"/>
    <stop offset="1" stop-color="#5d390b"/>
  </linearGradient>
  <filter id="glow" x="-40%" y="-40%" width="180%" height="180%">
    <feGaussianBlur stdDeviation="4" result="b"/>
    <feColorMatrix in="b" type="matrix" values="1 0 0 0 0.9 0 1 0 0 0.58 0 0 1 0 0.14 0 0 0 .75 0"/>
    <feMerge><feMergeNode/><feMergeNode in="SourceGraphic"/></feMerge>
  </filter>
</defs>
<g filter="url(#glow)">
  <path d="M90 11 C103 30 111 49 107 69 C121 44 144 38 157 54 C143 59 135 74 132 91 C142 91 151 99 154 111 C139 110 126 105 116 97 C117 113 111 127 98 139 L110 155 L90 168 L70 155 L82 139 C69 127 63 113 64 97 C54 105 41 110 26 111 C29 99 38 91 48 91 C45 74 37 59 23 54 C36 38 59 44 73 69 C69 49 77 30 90 11Z" fill="url(#g)" stroke="url(#edge)" stroke-width="3"/>
  <path d="M90 20 C96 44 94 70 90 107 C86 70 84 44 90 20Z" fill="#fff2ad" opacity=".55"/>
  <path d="M60 93 H120 C119 101 116 105 111 109 H69 C64 105 61 101 60 93Z" fill="url(#g)" stroke="#f6d36d" stroke-width="2"/>
  <path d="M75 117 C83 122 97 122 105 117" fill="none" stroke="#fff1a6" stroke-width="2" opacity=".75"/>
</g>
<g fill="#f6d36d" opacity=".9">
  <path d="M90 2 l3 9 9 3-9 3-3 9-3-9-9-3 9-3z"/>
  <path d="M24 132 l2 6 6 2-6 2-2 6-2-6-6-2 6-2z"/>
  <path d="M156 132 l2 6 6 2-6 2-2 6-2-6-6-2 6-2z"/>
</g>
</svg>
