<svg xmlns="http://www.w3.org/2000/svg" viewBox="0 0 1280 760" role="img" aria-labelledby="t d">
<title id="t">MONTREAL.AI founder-controlled federation architecture</title><desc id="d">MONTREAL.AI as permanent parent, GoalOS as flagship, shared estates, the Sovereign Foundry and project-specific Maisons.</desc>
<defs><linearGradient id="n" x1="0" y1="0" x2="1" y2="1"><stop stop-color="#06111f"/><stop offset="1" stop-color="#123b60"/></linearGradient><linearGradient id="g"><stop stop-color="#efd491"/><stop offset="1" stop-color="#9b6b26"/></linearGradient><filter id="s"><feDropShadow dx="0" dy="12" stdDeviation="14" flood-opacity=".18"/></filter></defs>
<rect width="1280" height="760" rx="30" fill="#f8f1e4"/>
<g stroke="#c79d51" stroke-width="2" fill="none" opacity=".75">
<path d="M640 150V220"/><path d="M640 326V380"/><path d="M640 482V535"/>
<path d="M640 380C490 380 345 390 170 448"/><path d="M640 380C540 390 460 405 395 448"/><path d="M640 380C610 400 598 414 595 448"/><path d="M640 380C670 400 682 414 685 448"/><path d="M640 380C740 390 820 405 885 448"/><path d="M640 380C790 380 935 390 1110 448"/>
<path d="M640 535C450 550 300 590 160 665"/><path d="M640 535C520 560 440 600 390 665"/><path d="M640 535C610 575 600 605 590 665"/><path d="M640 535C670 575 680 605 690 665"/><path d="M640 535C760 560 840 600 890 665"/><path d="M640 535C830 550 980 590 1120 665"/>
</g>
<g filter="url(#s)" text-anchor="middle">
<rect x="330" y="50" width="620" height="100" rx="18" fill="url(#n)" stroke="#b8893d" stroke-width="2"/><text x="640" y="94" font-family="Georgia,serif" font-size="30" fill="#f8e2aa">MONTREAL.AI</text><text x="640" y="123" font-family="Arial,sans-serif" font-size="14" fill="#d8e1e8">Permanent founder-controlled parent · Brand · IP · standards · capital · distribution · Chronicle</text>
<rect x="390" y="220" width="500" height="106" rx="18" fill="url(#n)" stroke="#b8893d" stroke-width="2"/><text x="640" y="267" font-family="Georgia,serif" font-size="34" fill="#f8e2aa">GoalOS</text><text x="640" y="296" font-family="Arial,sans-serif" font-size="14" fill="#d8e1e8">Flagship institutional operating system</text>
<rect x="510" y="382" width="260" height="100" rx="16" fill="#fffaf1" stroke="#b8893d" stroke-width="2"/><text x="640" y="425" font-family="Georgia,serif" font-size="24" fill="#15304a">α‑AGI Sovereign Foundry</text><text x="640" y="452" font-family="Arial,sans-serif" font-size="12" fill="#596875">Creates project-specific Maisons below the parent</text>
</g>
<g font-family="Georgia,serif" font-size="18" text-anchor="middle" fill="#15304a">
<g><rect x="65" y="448" width="210" height="68" rx="15" fill="#fffdf8" stroke="#c7a45b"/><text x="170" y="477">AGI.eth</text><text x="170" y="498" font-family="Arial" font-size="11" fill="#6c7680">Identity estate</text></g>
<g><rect x="290" y="448" width="210" height="68" rx="15" fill="#fffdf8" stroke="#c7a45b"/><text x="395" y="477">AGI Club</text><text x="395" y="498" font-family="Arial" font-size="11" fill="#6c7680">Private network</text></g>
<g><rect x="490" y="448" width="210" height="68" rx="15" fill="#fffdf8" stroke="#c7a45b"/><text x="595" y="477">AGI Alpha</text><text x="595" y="498" font-family="Arial" font-size="11" fill="#6c7680">Production &amp; settlement</text></g>
<g><rect x="580" y="448" width="210" height="68" rx="15" fill="#fffdf8" stroke="#c7a45b"/><text x="685" y="477">Proof &amp; Authority</text><text x="685" y="498" font-family="Arial" font-size="11" fill="#6c7680">Constitutional layer</text></g>
<g><rect x="780" y="448" width="210" height="68" rx="15" fill="#fffdf8" stroke="#c7a45b"/><text x="885" y="477">Chronicle</text><text x="885" y="498" font-family="Arial" font-size="11" fill="#6c7680">Memory &amp; capability</text></g>
<g><rect x="1005" y="448" width="210" height="68" rx="15" fill="#fffdf8" stroke="#c7a45b"/><text x="1110" y="477">Principal Office</text><text x="1110" y="498" font-family="Arial" font-size="11" fill="#6c7680">Direct distribution</text></g>
</g>
<g font-family="Arial,sans-serif" font-size="13" text-anchor="middle" fill="#21394f">
<g><circle cx="160" cy="680" r="48" fill="#fff" stroke="#c39d52"/><text x="160" y="685">Maison I</text></g><g><circle cx="390" cy="680" r="48" fill="#fff" stroke="#c39d52"/><text x="390" y="685">Maison II</text></g><g><circle cx="590" cy="680" r="48" fill="#fff" stroke="#c39d52"/><text x="590" y="685">Maison III</text></g><g><circle cx="690" cy="680" r="48" fill="#fff" stroke="#c39d52"/><text x="690" y="685">Maison IV</text></g><g><circle cx="890" cy="680" r="48" fill="#fff" stroke="#c39d52"/><text x="890" y="685">Maison V</text></g><g><circle cx="1120" cy="680" r="48" fill="#fff" stroke="#c39d52"/><text x="1120" y="685">Maison N</text></g>
</g></svg>