<svg xmlns="http://www.w3.org/2000/svg" width="3400" height="2300" viewBox="0 0 3400 2300">
<defs>
<linearGradient id="bg" x1="0" y1="0" x2="1" y2="1"><stop offset="0" stop-color="#fffdf7"/><stop offset=".5" stop-color="#fbf6e9"/><stop offset="1" stop-color="#f0e1c1"/></linearGradient>
<radialGradient id="halo" cx="50%" cy="40%" r="65%"><stop offset="0" stop-color="#ffffff" stop-opacity=".95"/><stop offset=".6" stop-color="#fff2c7" stop-opacity=".35"/><stop offset="1" stop-color="#ffffff" stop-opacity="0"/></radialGradient>
<linearGradient id="goldGrad" x1="0" y1="0" x2="1" y2="0"><stop offset="0" stop-color="#8a5a0b"/><stop offset=".45" stop-color="#e5c36a"/><stop offset="1" stop-color="#8a5a0b"/></linearGradient>
<linearGradient id="medalGrad" x1="0" y1="0" x2="1" y2="1"><stop offset="0" stop-color="#fff"/><stop offset=".55" stop-color="#fff4d8"/><stop offset="1" stop-color="#ebd4a1"/></linearGradient>
<filter id="softShadow" x="-30%" y="-30%" width="160%" height="160%"><feDropShadow dx="0" dy="18" stdDeviation="18" flood-color="#6f4b09" flood-opacity=".17"/></filter>
<filter id="cardShadow" x="-20%" y="-20%" width="140%" height="140%"><feDropShadow dx="0" dy="22" stdDeviation="24" flood-color="#1e2436" flood-opacity=".10"/></filter>
<marker id="arrowGold" markerWidth="18" markerHeight="18" refX="15" refY="9" orient="auto" markerUnits="strokeWidth"><path d="M0,0 L18,9 L0,18 z" fill="#b88a23"/></marker>
</defs>
<rect width="3400" height="2300" fill="url(#bg)"/><rect width="3400" height="2300" fill="url(#halo)"/>

<line x1="0" y1="0" x2="0" y2="2300" stroke="#eadfca" stroke-width="1" opacity=".45"/>
<line x1="96" y1="0" x2="96" y2="2300" stroke="#eadfca" stroke-width="1" opacity=".45"/>
<line x1="192" y1="0" x2="192" y2="2300" stroke="#eadfca" stroke-width="1" opacity=".45"/>
<line x1="288" y1="0" x2="288" y2="2300" stroke="#eadfca" stroke-width="1" opacity=".45"/>
<line x1="384" y1="0" x2="384" y2="2300" stroke="#eadfca" stroke-width="1" opacity=".45"/>
<line x1="480" y1="0" x2="480" y2="2300" stroke="#eadfca" stroke-width="1" opacity=".45"/>
<line x1="576" y1="0" x2="576" y2="2300" stroke="#eadfca" stroke-width="1" opacity=".45"/>
<line x1="672" y1="0" x2="672" y2="2300" stroke="#eadfca" stroke-width="1" opacity=".45"/>
<line x1="768" y1="0" x2="768" y2="2300" stroke="#eadfca" stroke-width="1" opacity=".45"/>
<line x1="864" y1="0" x2="864" y2="2300" stroke="#eadfca" stroke-width="1" opacity=".45"/>
<line x1="960" y1="0" x2="960" y2="2300" stroke="#eadfca" stroke-width="1" opacity=".45"/>
<line x1="1056" y1="0" x2="1056" y2="2300" stroke="#eadfca" stroke-width="1" opacity=".45"/>
<line x1="1152" y1="0" x2="1152" y2="2300" stroke="#eadfca" stroke-width="1" opacity=".45"/>
<line x1="1248" y1="0" x2="1248" y2="2300" stroke="#eadfca" stroke-width="1" opacity=".45"/>
<line x1="1344" y1="0" x2="1344" y2="2300" stroke="#eadfca" stroke-width="1" opacity=".45"/>
<line x1="1440" y1="0" x2="1440" y2="2300" stroke="#eadfca" stroke-width="1" opacity=".45"/>
<line x1="1536" y1="0" x2="1536" y2="2300" stroke="#eadfca" stroke-width="1" opacity=".45"/>
<line x1="1632" y1="0" x2="1632" y2="2300" stroke="#eadfca" stroke-width="1" opacity=".45"/>
<line x1="1728" y1="0" x2="1728" y2="2300" stroke="#eadfca" stroke-width="1" opacity=".45"/>
<line x1="1824" y1="0" x2="1824" y2="2300" stroke="#eadfca" stroke-width="1" opacity=".45"/>
<line x1="1920" y1="0" x2="1920" y2="2300" stroke="#eadfca" stroke-width="1" opacity=".45"/>
<line x1="2016" y1="0" x2="2016" y2="2300" stroke="#eadfca" stroke-width="1" opacity=".45"/>
<line x1="2112" y1="0" x2="2112" y2="2300" stroke="#eadfca" stroke-width="1" opacity=".45"/>
<line x1="2208" y1="0" x2="2208" y2="2300" stroke="#eadfca" stroke-width="1" opacity=".45"/>
<line x1="2304" y1="0" x2="2304" y2="2300" stroke="#eadfca" stroke-width="1" opacity=".45"/>
<line x1="2400" y1="0" x2="2400" y2="2300" stroke="#eadfca" stroke-width="1" opacity=".45"/>
<line x1="2496" y1="0" x2="2496" y2="2300" stroke="#eadfca" stroke-width="1" opacity=".45"/>
<line x1="2592" y1="0" x2="2592" y2="2300" stroke="#eadfca" stroke-width="1" opacity=".45"/>
<line x1="2688" y1="0" x2="2688" y2="2300" stroke="#eadfca" stroke-width="1" opacity=".45"/>
<line x1="2784" y1="0" x2="2784" y2="2300" stroke="#eadfca" stroke-width="1" opacity=".45"/>
<line x1="2880" y1="0" x2="2880" y2="2300" stroke="#eadfca" stroke-width="1" opacity=".45"/>
<line x1="2976" y1="0" x2="2976" y2="2300" stroke="#eadfca" stroke-width="1" opacity=".45"/>
<line x1="3072" y1="0" x2="3072" y2="2300" stroke="#eadfca" stroke-width="1" opacity=".45"/>
<line x1="3168" y1="0" x2="3168" y2="2300" stroke="#eadfca" stroke-width="1" opacity=".45"/>
<line x1="3264" y1="0" x2="3264" y2="2300" stroke="#eadfca" stroke-width="1" opacity=".45"/>
<line x1="3360" y1="0" x2="3360" y2="2300" stroke="#eadfca" stroke-width="1" opacity=".45"/>
<line x1="0" y1="0" x2="3400" y2="0" stroke="#eadfca" stroke-width="1" opacity=".45"/>
<line x1="0" y1="96" x2="3400" y2="96" stroke="#eadfca" stroke-width="1" opacity=".45"/>
<line x1="0" y1="192" x2="3400" y2="192" stroke="#eadfca" stroke-width="1" opacity=".45"/>
<line x1="0" y1="288" x2="3400" y2="288" stroke="#eadfca" stroke-width="1" opacity=".45"/>
<line x1="0" y1="384" x2="3400" y2="384" stroke="#eadfca" stroke-width="1" opacity=".45"/>
<line x1="0" y1="480" x2="3400" y2="480" stroke="#eadfca" stroke-width="1" opacity=".45"/>
<line x1="0" y1="576" x2="3400" y2="576" stroke="#eadfca" stroke-width="1" opacity=".45"/>
<line x1="0" y1="672" x2="3400" y2="672" stroke="#eadfca" stroke-width="1" opacity=".45"/>
<line x1="0" y1="768" x2="3400" y2="768" stroke="#eadfca" stroke-width="1" opacity=".45"/>
<line x1="0" y1="864" x2="3400" y2="864" stroke="#eadfca" stroke-width="1" opacity=".45"/>
<line x1="0" y1="960" x2="3400" y2="960" stroke="#eadfca" stroke-width="1" opacity=".45"/>
<line x1="0" y1="1056" x2="3400" y2="1056" stroke="#eadfca" stroke-width="1" opacity=".45"/>
<line x1="0" y1="1152" x2="3400" y2="1152" stroke="#eadfca" stroke-width="1" opacity=".45"/>
<line x1="0" y1="1248" x2="3400" y2="1248" stroke="#eadfca" stroke-width="1" opacity=".45"/>
<line x1="0" y1="1344" x2="3400" y2="1344" stroke="#eadfca" stroke-width="1" opacity=".45"/>
<line x1="0" y1="1440" x2="3400" y2="1440" stroke="#eadfca" stroke-width="1" opacity=".45"/>
<line x1="0" y1="1536" x2="3400" y2="1536" stroke="#eadfca" stroke-width="1" opacity=".45"/>
<line x1="0" y1="1632" x2="3400" y2="1632" stroke="#eadfca" stroke-width="1" opacity=".45"/>
<line x1="0" y1="1728" x2="3400" y2="1728" stroke="#eadfca" stroke-width="1" opacity=".45"/>
<line x1="0" y1="1824" x2="3400" y2="1824" stroke="#eadfca" stroke-width="1" opacity=".45"/>
<line x1="0" y1="1920" x2="3400" y2="1920" stroke="#eadfca" stroke-width="1" opacity=".45"/>
<line x1="0" y1="2016" x2="3400" y2="2016" stroke="#eadfca" stroke-width="1" opacity=".45"/>
<line x1="0" y1="2112" x2="3400" y2="2112" stroke="#eadfca" stroke-width="1" opacity=".45"/>
<line x1="0" y1="2208" x2="3400" y2="2208" stroke="#eadfca" stroke-width="1" opacity=".45"/>
<circle cx="1700" cy="1080" r="350" fill="none" stroke="#d9bd6c" stroke-width="2" opacity=".06"/>
<circle cx="1700" cy="1080" r="540" fill="none" stroke="#d9bd6c" stroke-width="2" opacity=".06"/>
<circle cx="1700" cy="1080" r="730" fill="none" stroke="#d9bd6c" stroke-width="2" opacity=".06"/>
<circle cx="1700" cy="1080" r="930" fill="none" stroke="#d9bd6c" stroke-width="2" opacity=".06"/>
<text x="250" y="140" font-family="Inter, Arial, sans-serif" font-size="27" font-weight="950" fill="#b88a23" text-anchor="start" opacity="1" letter-spacing="10" >GOALOS OPERATING NOTE</text>
<text x="250" y="295" font-family="Georgia, Times New Roman, serif" font-size="174" font-weight="900" fill="#07172f" text-anchor="start" opacity="1" letter-spacing="0" >PROOF_LOOPS.md</text>
<text x="253" y="370" font-family="Georgia, Times New Roman, serif" font-size="36" font-weight="700" fill="#b88a23" text-anchor="start" opacity="1" letter-spacing="0" font-style="italic">Field Notes on Machines That Turn Work Into Capability</text>
<text x="2975" y="135" font-family="Inter, Arial, sans-serif" font-size="31" font-weight="950" fill="#1e365c" text-anchor="end" opacity="1" letter-spacing="0" >Vincent Boucher</text>
<text x="2975" y="176" font-family="Inter, Arial, sans-serif" font-size="25" font-weight="900" fill="#1e365c" text-anchor="end" opacity="1" letter-spacing="0" >President, QUEBEC.AI &amp; MONTREAL.AI</text>
<line x1="250" y1="410" x2="3150" y2="410" stroke="url(#goldGrad)" stroke-width="3" opacity="0.95"/>
<rect x="850" y="470" width="1700" height="170" rx="44" fill="#fff8e8" stroke="#dcbf6b" stroke-width="2" opacity="1" filter="url(#cardShadow)"/>
<text x="1700" y="552" font-family="Georgia, Times New Roman, serif" font-size="54" font-weight="900" fill="#07172f" text-anchor="middle" opacity="1" letter-spacing="0" >AI creates output. GoalOS creates proof.</text>
<text x="1700" y="596" font-family="Inter, Arial, sans-serif" font-size="24" font-weight="950" fill="#b88a23" text-anchor="middle" opacity="1" letter-spacing="0" >No proof, no memory. No replay, no settlement. No rollback, no release.</text>
<rect x="250" y="710" width="2900" height="790" rx="38" fill="#fffefb" stroke="#dfc77d" stroke-width="2.6" opacity="1" filter="url(#cardShadow)"/>
<text x="1700" y="765" font-family="Inter, Arial, sans-serif" font-size="26" font-weight="950" fill="#1e365c" text-anchor="middle" opacity="1" letter-spacing="0" >Objective -&gt; Proof Mission -&gt; AGI Jobs -&gt; Evidence -&gt; Chronicle -&gt; Validated Skill -&gt; On-chain Graph Root -&gt; Future Mission Improvement</text>
<line x1="578" y1="1010" x2="697" y2="1010" stroke="#b88a23" stroke-width="6" opacity="0.85" marker-end="url(#arrowGold)"/>
<line x1="933" y1="1010" x2="1052" y2="1010" stroke="#b88a23" stroke-width="6" opacity="0.85" marker-end="url(#arrowGold)"/>
<line x1="1288" y1="1010" x2="1407" y2="1010" stroke="#b88a23" stroke-width="6" opacity="0.85" marker-end="url(#arrowGold)"/>
<line x1="1643" y1="1010" x2="1762" y2="1010" stroke="#b88a23" stroke-width="6" opacity="0.85" marker-end="url(#arrowGold)"/>
<line x1="1998" y1="1010" x2="2117" y2="1010" stroke="#b88a23" stroke-width="6" opacity="0.85" marker-end="url(#arrowGold)"/>
<line x1="2353" y1="1010" x2="2472" y2="1010" stroke="#b88a23" stroke-width="6" opacity="0.85" marker-end="url(#arrowGold)"/>
<line x1="2708" y1="1010" x2="2827" y2="1010" stroke="#b88a23" stroke-width="6" opacity="0.85" marker-end="url(#arrowGold)"/>
<circle cx="460" cy="1010" r="98" fill="url(#medalGrad)" stroke="#d8b250" stroke-width="4" opacity="1" filter="url(#softShadow)"/>
<circle cx="460" cy="1010" r="72" fill="#fffdf7" stroke="#e8d7aa" stroke-width="2" opacity="1"/>
<circle cx="418" cy="968" r="22" fill="#d8b250" stroke="#8d650f" stroke-width="2" opacity="1"/>
<text x="418" y="976" font-family="Inter, Arial, sans-serif" font-size="16" font-weight="950" fill="white" text-anchor="middle" opacity="1" letter-spacing="0" >01</text>
<circle cx="460" cy="1010" r="42" fill="none" stroke="#1e365c" stroke-width="4" opacity="1"/>
<circle cx="460" cy="1010" r="27" fill="none" stroke="#1e365c" stroke-width="4" opacity="1"/>
<circle cx="460" cy="1010" r="10" fill="none" stroke="#1e365c" stroke-width="4" opacity="1"/>
<line x1="404" y1="1010" x2="432" y2="1010" stroke="#1e365c" stroke-width="4" opacity="1"/>
<line x1="488" y1="1010" x2="516" y2="1010" stroke="#1e365c" stroke-width="4" opacity="1"/>
<line x1="460" y1="954" x2="460" y2="982" stroke="#1e365c" stroke-width="4" opacity="1"/>
<line x1="460" y1="1038" x2="460" y2="1066" stroke="#1e365c" stroke-width="4" opacity="1"/>
<text x="460" y="1138" font-family="Georgia, Times New Roman, serif" font-size="31" font-weight="900" fill="#07172f" text-anchor="middle" opacity="1" letter-spacing="0" >Objective</text>
<text x="355" y="1178" font-family="Inter, Arial, sans-serif" font-size="21" font-weight="800" fill="#65708a" text-anchor="start" opacity="1" letter-spacing="0" >Define the</text>
<text x="355" y="1205" font-family="Inter, Arial, sans-serif" font-size="21" font-weight="800" fill="#65708a" text-anchor="start" opacity="1" letter-spacing="0" >decision. Set</text>
<text x="355" y="1232" font-family="Inter, Arial, sans-serif" font-size="21" font-weight="800" fill="#65708a" text-anchor="start" opacity="1" letter-spacing="0" >scope.</text>
<circle cx="815" cy="1010" r="98" fill="url(#medalGrad)" stroke="#d8b250" stroke-width="4" opacity="1" filter="url(#softShadow)"/>
<circle cx="815" cy="1010" r="72" fill="#fffdf7" stroke="#e8d7aa" stroke-width="2" opacity="1"/>
<circle cx="773" cy="968" r="22" fill="#d8b250" stroke="#8d650f" stroke-width="2" opacity="1"/>
<text x="773" y="976" font-family="Inter, Arial, sans-serif" font-size="16" font-weight="950" fill="white" text-anchor="middle" opacity="1" letter-spacing="0" >02</text>
<path d="M 781 962 L 835 962 L 857 984 L 857 1058 L 781 1058 Z" fill="#fffdf7" stroke="#1e365c" stroke-width="5"/>
<path d="M 835 962 L 835 984 L 857 984" fill="none" stroke="#1e365c" stroke-width="5"/>
<line x1="797" y1="1000" x2="839" y2="1000" stroke="#b88a23" stroke-width="4" opacity="1"/>
<line x1="797" y1="1018" x2="839" y2="1018" stroke="#b88a23" stroke-width="4" opacity="1"/>
<line x1="797" y1="1036" x2="839" y2="1036" stroke="#b88a23" stroke-width="4" opacity="1"/>
<text x="815" y="1138" font-family="Georgia, Times New Roman, serif" font-size="31" font-weight="900" fill="#07172f" text-anchor="middle" opacity="1" letter-spacing="0" >Proof Mission</text>
<text x="710" y="1178" font-family="Inter, Arial, sans-serif" font-size="21" font-weight="800" fill="#65708a" text-anchor="start" opacity="1" letter-spacing="0" >Turn intent into</text>
<text x="710" y="1205" font-family="Inter, Arial, sans-serif" font-size="21" font-weight="800" fill="#65708a" text-anchor="start" opacity="1" letter-spacing="0" >proof work.</text>
<circle cx="1170" cy="1010" r="98" fill="url(#medalGrad)" stroke="#d8b250" stroke-width="4" opacity="1" filter="url(#softShadow)"/>
<circle cx="1170" cy="1010" r="72" fill="#fffdf7" stroke="#e8d7aa" stroke-width="2" opacity="1"/>
<circle cx="1128" cy="968" r="22" fill="#d8b250" stroke="#8d650f" stroke-width="2" opacity="1"/>
<text x="1128" y="976" font-family="Inter, Arial, sans-serif" font-size="16" font-weight="950" fill="white" text-anchor="middle" opacity="1" letter-spacing="0" >03</text>
<rect x="1118" y="1002" width="104" height="54" rx="8" fill="#fffdf7" stroke="#1e365c" stroke-width="5" opacity="1"/>
<rect x="1126" y="976" width="34" height="26" rx="5" fill="#fffdf7" stroke="#1e365c" stroke-width="4" opacity="1"/>
<rect x="1166" y="964" width="40" height="38" rx="5" fill="#fffdf7" stroke="#1e365c" stroke-width="4" opacity="1"/>
<rect x="1130" y="1024" width="16" height="32" rx="3" fill="#d8b250" stroke="#8d650f" stroke-width="2" opacity="1"/>
<rect x="1162" y="1024" width="16" height="32" rx="3" fill="#d8b250" stroke="#8d650f" stroke-width="2" opacity="1"/>
<rect x="1194" y="1024" width="16" height="32" rx="3" fill="#d8b250" stroke="#8d650f" stroke-width="2" opacity="1"/>
<circle cx="1213" cy="975" r="18" fill="none" stroke="#b88a23" stroke-width="4" opacity="1"/>
<line x1="1231.0" y1="975.0" x2="1238.0" y2="975.0" stroke="#b88a23" stroke-width="3" opacity="1"/>
<line x1="1225.727922061358" y1="987.7279220613578" x2="1230.6776695296637" y2="992.6776695296637" stroke="#b88a23" stroke-width="3" opacity="1"/>
<line x1="1213.0" y1="993.0" x2="1213.0" y2="1000.0" stroke="#b88a23" stroke-width="3" opacity="1"/>
<line x1="1200.272077938642" y1="987.7279220613578" x2="1195.3223304703363" y2="992.6776695296637" stroke="#b88a23" stroke-width="3" opacity="1"/>
<line x1="1195.0" y1="975.0" x2="1188.0" y2="975.0" stroke="#b88a23" stroke-width="3" opacity="1"/>
<line x1="1200.272077938642" y1="962.2720779386422" x2="1195.3223304703363" y2="957.3223304703363" stroke="#b88a23" stroke-width="3" opacity="1"/>
<line x1="1213.0" y1="957.0" x2="1213.0" y2="950.0" stroke="#b88a23" stroke-width="3" opacity="1"/>
<line x1="1225.727922061358" y1="962.2720779386422" x2="1230.6776695296637" y2="957.3223304703363" stroke="#b88a23" stroke-width="3" opacity="1"/>
<text x="1170" y="1138" font-family="Georgia, Times New Roman, serif" font-size="31" font-weight="900" fill="#07172f" text-anchor="middle" opacity="1" letter-spacing="0" >AGI Jobs</text>
<text x="1065" y="1178" font-family="Inter, Arial, sans-serif" font-size="21" font-weight="800" fill="#65708a" text-anchor="start" opacity="1" letter-spacing="0" >Create custom</text>
<text x="1065" y="1205" font-family="Inter, Arial, sans-serif" font-size="21" font-weight="800" fill="#65708a" text-anchor="start" opacity="1" letter-spacing="0" >jobs. No canned</text>
<text x="1065" y="1232" font-family="Inter, Arial, sans-serif" font-size="21" font-weight="800" fill="#65708a" text-anchor="start" opacity="1" letter-spacing="0" >queue.</text>
<circle cx="1525" cy="1010" r="98" fill="url(#medalGrad)" stroke="#d8b250" stroke-width="4" opacity="1" filter="url(#softShadow)"/>
<circle cx="1525" cy="1010" r="72" fill="#fffdf7" stroke="#e8d7aa" stroke-width="2" opacity="1"/>
<circle cx="1483" cy="968" r="22" fill="#d8b250" stroke="#8d650f" stroke-width="2" opacity="1"/>
<text x="1483" y="976" font-family="Inter, Arial, sans-serif" font-size="16" font-weight="950" fill="white" text-anchor="middle" opacity="1" letter-spacing="0" >04</text>
<rect x="1469" y="978" width="112" height="74" rx="12" fill="#fffdf7" stroke="#1e365c" stroke-width="5" opacity="1"/>
<path d="M 1471 978 L 1507 978 L 1519 992 L 1579 992" fill="none" stroke="#1e365c" stroke-width="5"/>
<line x1="1489" y1="1010" x2="1559" y2="1010" stroke="#b88a23" stroke-width="3" opacity="1"/>
<line x1="1489" y1="1026" x2="1559" y2="1026" stroke="#b88a23" stroke-width="3" opacity="1"/>
<line x1="1489" y1="1042" x2="1559" y2="1042" stroke="#b88a23" stroke-width="3" opacity="1"/>
<text x="1525" y="1138" font-family="Georgia, Times New Roman, serif" font-size="31" font-weight="900" fill="#07172f" text-anchor="middle" opacity="1" letter-spacing="0" >Evidence</text>
<text x="1420" y="1178" font-family="Inter, Arial, sans-serif" font-size="21" font-weight="800" fill="#65708a" text-anchor="start" opacity="1" letter-spacing="0" >Return bundles,</text>
<text x="1420" y="1205" font-family="Inter, Arial, sans-serif" font-size="21" font-weight="800" fill="#65708a" text-anchor="start" opacity="1" letter-spacing="0" >replay, and</text>
<text x="1420" y="1232" font-family="Inter, Arial, sans-serif" font-size="21" font-weight="800" fill="#65708a" text-anchor="start" opacity="1" letter-spacing="0" >reviews.</text>
<circle cx="1880" cy="1010" r="98" fill="url(#medalGrad)" stroke="#d8b250" stroke-width="4" opacity="1" filter="url(#softShadow)"/>
<circle cx="1880" cy="1010" r="72" fill="#fffdf7" stroke="#e8d7aa" stroke-width="2" opacity="1"/>
<circle cx="1838" cy="968" r="22" fill="#d8b250" stroke="#8d650f" stroke-width="2" opacity="1"/>
<text x="1838" y="976" font-family="Inter, Arial, sans-serif" font-size="16" font-weight="950" fill="white" text-anchor="middle" opacity="1" letter-spacing="0" >05</text>
<ellipse cx="1880" cy="968" rx="48" ry="18" fill="#fffdf7" stroke="#1e365c" stroke-width="5"/>
<path d="M 1832 968 L 1832 1052 Q 1880 1074 1928 1052 L 1928 968" fill="#fffdf7" stroke="#1e365c" stroke-width="5"/>
<ellipse cx="1880" cy="1052" rx="48" ry="18" fill="#fffdf7" stroke="#1e365c" stroke-width="5"/>
<rect x="1866" y="1005" width="28" height="34" rx="5" fill="#d8b250" stroke="#8d650f" stroke-width="2" opacity="1"/>
<text x="1880" y="1138" font-family="Georgia, Times New Roman, serif" font-size="31" font-weight="900" fill="#07172f" text-anchor="middle" opacity="1" letter-spacing="0" >Chronicle</text>
<text x="1775" y="1178" font-family="Inter, Arial, sans-serif" font-size="21" font-weight="800" fill="#65708a" text-anchor="start" opacity="1" letter-spacing="0" >Admit only</text>
<text x="1775" y="1205" font-family="Inter, Arial, sans-serif" font-size="21" font-weight="800" fill="#65708a" text-anchor="start" opacity="1" letter-spacing="0" >validated</text>
<text x="1775" y="1232" font-family="Inter, Arial, sans-serif" font-size="21" font-weight="800" fill="#65708a" text-anchor="start" opacity="1" letter-spacing="0" >evidence.</text>
<circle cx="2235" cy="1010" r="98" fill="url(#medalGrad)" stroke="#d8b250" stroke-width="4" opacity="1" filter="url(#softShadow)"/>
<circle cx="2235" cy="1010" r="72" fill="#fffdf7" stroke="#e8d7aa" stroke-width="2" opacity="1"/>
<circle cx="2193" cy="968" r="22" fill="#d8b250" stroke="#8d650f" stroke-width="2" opacity="1"/>
<text x="2193" y="976" font-family="Inter, Arial, sans-serif" font-size="16" font-weight="950" fill="white" text-anchor="middle" opacity="1" letter-spacing="0" >06</text>
<line x1="2193" y1="982" x2="2235" y2="960" stroke="#b88a23" stroke-width="3" opacity="1"/>
<line x1="2235" y1="960" x2="2279" y2="986" stroke="#b88a23" stroke-width="3" opacity="1"/>
<line x1="2193" y1="982" x2="2235" y2="1014" stroke="#b88a23" stroke-width="3" opacity="1"/>
<line x1="2235" y1="1014" x2="2279" y2="986" stroke="#b88a23" stroke-width="3" opacity="1"/>
<line x1="2193" y1="982" x2="2211" y2="1046" stroke="#b88a23" stroke-width="3" opacity="1"/>
<line x1="2211" y1="1046" x2="2235" y2="1014" stroke="#b88a23" stroke-width="3" opacity="1"/>
<line x1="2235" y1="1014" x2="2273" y2="1050" stroke="#b88a23" stroke-width="3" opacity="1"/>
<line x1="2279" y1="986" x2="2273" y2="1050" stroke="#b88a23" stroke-width="3" opacity="1"/>
<line x1="2211" y1="1046" x2="2273" y2="1050" stroke="#b88a23" stroke-width="3" opacity="1"/>
<circle cx="2193" cy="982" r="11" fill="#fffdf7" stroke="#1e365c" stroke-width="4" opacity="1"/>
<circle cx="2235" cy="960" r="11" fill="#fffdf7" stroke="#1e365c" stroke-width="4" opacity="1"/>
<circle cx="2279" cy="986" r="11" fill="#fffdf7" stroke="#1e365c" stroke-width="4" opacity="1"/>
<circle cx="2211" cy="1046" r="11" fill="#fffdf7" stroke="#1e365c" stroke-width="4" opacity="1"/>
<circle cx="2273" cy="1050" r="11" fill="#fffdf7" stroke="#1e365c" stroke-width="4" opacity="1"/>
<circle cx="2235" cy="1014" r="11" fill="#fffdf7" stroke="#1e365c" stroke-width="4" opacity="1"/>
<text x="2235" y="1138" font-family="Georgia, Times New Roman, serif" font-size="31" font-weight="900" fill="#07172f" text-anchor="middle" opacity="1" letter-spacing="0" >Validated Skill</text>
<text x="2130" y="1178" font-family="Inter, Arial, sans-serif" font-size="21" font-weight="800" fill="#65708a" text-anchor="start" opacity="1" letter-spacing="0" >Reusable</text>
<text x="2130" y="1205" font-family="Inter, Arial, sans-serif" font-size="21" font-weight="800" fill="#65708a" text-anchor="start" opacity="1" letter-spacing="0" >capability with</text>
<text x="2130" y="1232" font-family="Inter, Arial, sans-serif" font-size="21" font-weight="800" fill="#65708a" text-anchor="start" opacity="1" letter-spacing="0" >limits.</text>
<circle cx="2590" cy="1010" r="98" fill="url(#medalGrad)" stroke="#d8b250" stroke-width="4" opacity="1" filter="url(#softShadow)"/>
<circle cx="2590" cy="1010" r="72" fill="#fffdf7" stroke="#e8d7aa" stroke-width="2" opacity="1"/>
<circle cx="2548" cy="968" r="22" fill="#d8b250" stroke="#8d650f" stroke-width="2" opacity="1"/>
<text x="2548" y="976" font-family="Inter, Arial, sans-serif" font-size="16" font-weight="950" fill="white" text-anchor="middle" opacity="1" letter-spacing="0" >07</text>
<rect x="2536" y="992" width="62" height="36" rx="18" fill="none" stroke="#1e365c" stroke-width="6" opacity="1"/>
<rect x="2582" y="992" width="62" height="36" rx="18" fill="none" stroke="#1e365c" stroke-width="6" opacity="1"/>
<line x1="2574" y1="1010" x2="2606" y2="1010" stroke="#b88a23" stroke-width="5" opacity="1"/>
<polygon points="2590,948 2638,976 2638,1032 2590,1060 2542,1032 2542,976" fill="none" stroke="#b88a23" stroke-width="4" opacity=".7"/>
<text x="2590" y="1138" font-family="Georgia, Times New Roman, serif" font-size="31" font-weight="900" fill="#07172f" text-anchor="middle" opacity="1" letter-spacing="0" >On-chain Root</text>
<text x="2485" y="1178" font-family="Inter, Arial, sans-serif" font-size="21" font-weight="800" fill="#65708a" text-anchor="start" opacity="1" letter-spacing="0" >Commit roots, not</text>
<text x="2485" y="1205" font-family="Inter, Arial, sans-serif" font-size="21" font-weight="800" fill="#65708a" text-anchor="start" opacity="1" letter-spacing="0" >plaintext.</text>
<circle cx="2945" cy="1010" r="98" fill="url(#medalGrad)" stroke="#d8b250" stroke-width="4" opacity="1" filter="url(#softShadow)"/>
<circle cx="2945" cy="1010" r="72" fill="#fffdf7" stroke="#e8d7aa" stroke-width="2" opacity="1"/>
<circle cx="2903" cy="968" r="22" fill="#d8b250" stroke="#8d650f" stroke-width="2" opacity="1"/>
<text x="2903" y="976" font-family="Inter, Arial, sans-serif" font-size="16" font-weight="950" fill="white" text-anchor="middle" opacity="1" letter-spacing="0" >08</text>
<rect x="2891" y="1033" width="22" height="25" rx="4" fill="#fffdf7" stroke="#1e365c" stroke-width="4" opacity="1"/>
<rect x="2927" y="1014" width="22" height="44" rx="4" fill="#fffdf7" stroke="#1e365c" stroke-width="4" opacity="1"/>
<rect x="2963" y="990" width="22" height="68" rx="4" fill="#fffdf7" stroke="#1e365c" stroke-width="4" opacity="1"/>
<path d="M 2895 1036 C 2929 1010 2957 1000 2997 956" fill="none" stroke="#b88a23" stroke-width="6" opacity="1" marker-end="url(#arrowGold)"/>
<circle cx="3001" cy="952" r="8" fill="#d8b250" stroke="#8d650f" stroke-width="2" opacity="1"/>
<text x="2945" y="1138" font-family="Georgia, Times New Roman, serif" font-size="31" font-weight="900" fill="#07172f" text-anchor="middle" opacity="1" letter-spacing="0" >Future Mission</text>
<text x="2840" y="1178" font-family="Inter, Arial, sans-serif" font-size="21" font-weight="800" fill="#65708a" text-anchor="start" opacity="1" letter-spacing="0" >Use admitted</text>
<text x="2840" y="1205" font-family="Inter, Arial, sans-serif" font-size="21" font-weight="800" fill="#65708a" text-anchor="start" opacity="1" letter-spacing="0" >skills as governed</text>
<text x="2840" y="1232" font-family="Inter, Arial, sans-serif" font-size="21" font-weight="800" fill="#65708a" text-anchor="start" opacity="1" letter-spacing="0" >priors.</text>
<path d="M 2935 1242 C 2520 1508 860 1508 470 1242" fill="none" stroke="#b88a23" stroke-width="4" opacity="0.65" stroke-dasharray="12 14" marker-end="url(#arrowGold)"/>
<text x="1700" y="1435" font-family="Inter, Arial, sans-serif" font-size="24" font-weight="900" fill="#b88a23" text-anchor="middle" opacity="1" letter-spacing="0" >repair path: failing candidates create new proof jobs  ·  admitted skills become governed priors</text>
<rect x="1220" y="1312" width="960" height="145" rx="30" fill="#fff8e8" stroke="#dec47a" stroke-width="2" opacity="1"/>
<text x="1700" y="1364" font-family="Georgia, Times New Roman, serif" font-size="36" font-weight="900" fill="#07172f" text-anchor="middle" opacity="1" letter-spacing="0" >The Proof Loop Kernel</text>
<text x="1700" y="1402" font-family="Inter, Arial, sans-serif" font-size="22" font-weight="950" fill="#b88a23" text-anchor="middle" opacity="1" letter-spacing="0" >Nothing becomes reusable capability until Chronicle admits it.</text>
<rect x="250" y="1555" width="905" height="260" rx="28" fill="#fffefb" stroke="#dcc37a" stroke-width="2" opacity="1" filter="url(#cardShadow)"/>
<rect x="250" y="1555" width="905" height="9" rx="4" fill="#16858c" opacity=".96"/>
<text x="294" y="1623" font-family="Georgia, Times New Roman, serif" font-size="31" font-weight="900" fill="#07172f" text-anchor="start" opacity="1" letter-spacing="0" >User-Friendly Operating Surface</text>
<text x="294" y="1668" font-family="Inter, Arial, sans-serif" font-size="23" font-weight="750" fill="#65708a" text-anchor="start" opacity="1" letter-spacing="0" >Set an objective. Choose proof level. Create only</text>
<text x="294" y="1698" font-family="Inter, Arial, sans-serif" font-size="23" font-weight="750" fill="#65708a" text-anchor="start" opacity="1" letter-spacing="0" >the AGI Jobs needed by this mission. Inspect</text>
<text x="294" y="1728" font-family="Inter, Arial, sans-serif" font-size="23" font-weight="750" fill="#65708a" text-anchor="start" opacity="1" letter-spacing="0" >evidence. Admit skills only when the gate passes.</text>
<rect x="1250" y="1555" width="905" height="260" rx="28" fill="#fffefb" stroke="#dcc37a" stroke-width="2" opacity="1" filter="url(#cardShadow)"/>
<rect x="1250" y="1555" width="905" height="9" rx="4" fill="#b88a23" opacity=".96"/>
<text x="1294" y="1623" font-family="Georgia, Times New Roman, serif" font-size="31" font-weight="900" fill="#07172f" text-anchor="start" opacity="1" letter-spacing="0" >Public / Private Proof Boundary</text>
<text x="1294" y="1668" font-family="Inter, Arial, sans-serif" font-size="23" font-weight="750" fill="#65708a" text-anchor="start" opacity="1" letter-spacing="0" >Commitments, graph roots, attestations, and policy</text>
<text x="1294" y="1698" font-family="Inter, Arial, sans-serif" font-size="23" font-weight="750" fill="#65708a" text-anchor="start" opacity="1" letter-spacing="0" >proofs can be public. Private method, traces,</text>
<text x="1294" y="1728" font-family="Inter, Arial, sans-serif" font-size="23" font-weight="750" fill="#65708a" text-anchor="start" opacity="1" letter-spacing="0" >reviewer notes, and sensitive context stay encrypted</text>
<text x="1294" y="1758" font-family="Inter, Arial, sans-serif" font-size="23" font-weight="750" fill="#65708a" text-anchor="start" opacity="1" letter-spacing="0" >or off-chain.</text>
<rect x="2250" y="1555" width="905" height="260" rx="28" fill="#fffefb" stroke="#dcc37a" stroke-width="2" opacity="1" filter="url(#cardShadow)"/>
<rect x="2250" y="1555" width="905" height="9" rx="4" fill="#2a7a5c" opacity=".96"/>
<text x="2294" y="1623" font-family="Georgia, Times New Roman, serif" font-size="31" font-weight="900" fill="#07172f" text-anchor="start" opacity="1" letter-spacing="0" >Artifacts That Make Trust Inspectable</text>
<text x="2294" y="1668" font-family="Inter, Arial, sans-serif" font-size="23" font-weight="750" fill="#65708a" text-anchor="start" opacity="1" letter-spacing="0" >Mission Contract, Proof Debt Register, AGI Jobs,</text>
<text x="2294" y="1698" font-family="Inter, Arial, sans-serif" font-size="23" font-weight="750" fill="#65708a" text-anchor="start" opacity="1" letter-spacing="0" >ProofBundles, Evidence Docket, Chronicle Decision,</text>
<text x="2294" y="1728" font-family="Inter, Arial, sans-serif" font-size="23" font-weight="750" fill="#65708a" text-anchor="start" opacity="1" letter-spacing="0" >Skill Capsule, and Graph Root Record.</text>
<rect x="250" y="1870" width="2900" height="265" rx="30" fill="#fffefb" stroke="#dcc37a" stroke-width="2" opacity="1" filter="url(#cardShadow)"/>
<text x="350" y="1934" font-family="Georgia, Times New Roman, serif" font-size="31" font-weight="900" fill="#07172f" text-anchor="start" opacity="1" letter-spacing="0" >Proof Level Ladder</text>
<line x1="690" y1="1972" x2="2610" y2="1972" stroke="url(#goldGrad)" stroke-width="8" opacity="0.85"/>
<circle cx="650" cy="1972" r="45" fill="#fff8e8" stroke="#c7a044" stroke-width="3" opacity="1"/>
<text x="650" y="1982" font-family="Inter, Arial, sans-serif" font-size="25" font-weight="950" fill="#1e365c" text-anchor="middle" opacity="1" letter-spacing="0" >L1</text>
<text x="650" y="2055" font-family="Georgia, Times New Roman, serif" font-size="24" font-weight="900" fill="#07172f" text-anchor="middle" opacity="1" letter-spacing="0" >Structural</text>
<text x="650" y="2087" font-family="Inter, Arial, sans-serif" font-size="18" font-weight="750" fill="#65708a" text-anchor="middle" opacity="1" letter-spacing="0" >show loop</text>
<circle cx="1150" cy="1972" r="45" fill="#fff8e8" stroke="#c7a044" stroke-width="3" opacity="1"/>
<text x="1150" y="1982" font-family="Inter, Arial, sans-serif" font-size="25" font-weight="950" fill="#1e365c" text-anchor="middle" opacity="1" letter-spacing="0" >L2</text>
<text x="1150" y="2055" font-family="Georgia, Times New Roman, serif" font-size="24" font-weight="900" fill="#07172f" text-anchor="middle" opacity="1" letter-spacing="0" >Internal</text>
<text x="1150" y="2087" font-family="Inter, Arial, sans-serif" font-size="18" font-weight="750" fill="#65708a" text-anchor="middle" opacity="1" letter-spacing="0" >operator review</text>
<circle cx="1650" cy="1972" r="45" fill="#fff8e8" stroke="#c7a044" stroke-width="3" opacity="1"/>
<text x="1650" y="1982" font-family="Inter, Arial, sans-serif" font-size="25" font-weight="950" fill="#1e365c" text-anchor="middle" opacity="1" letter-spacing="0" >L3</text>
<text x="1650" y="2055" font-family="Georgia, Times New Roman, serif" font-size="24" font-weight="900" fill="#07172f" text-anchor="middle" opacity="1" letter-spacing="0" >External</text>
<text x="1650" y="2087" font-family="Inter, Arial, sans-serif" font-size="18" font-weight="750" fill="#65708a" text-anchor="middle" opacity="1" letter-spacing="0" >reviewer validation</text>
<circle cx="2150" cy="1972" r="45" fill="#fff8e8" stroke="#c7a044" stroke-width="3" opacity="1"/>
<text x="2150" y="1982" font-family="Inter, Arial, sans-serif" font-size="25" font-weight="950" fill="#1e365c" text-anchor="middle" opacity="1" letter-spacing="0" >L4</text>
<text x="2150" y="2055" font-family="Georgia, Times New Roman, serif" font-size="24" font-weight="900" fill="#07172f" text-anchor="middle" opacity="1" letter-spacing="0" >Handoff</text>
<text x="2150" y="2087" font-family="Inter, Arial, sans-serif" font-size="18" font-weight="750" fill="#65708a" text-anchor="middle" opacity="1" letter-spacing="0" >mainnet-ready packet</text>
<circle cx="2650" cy="1972" r="45" fill="#fff8e8" stroke="#c7a044" stroke-width="3" opacity="1"/>
<text x="2650" y="1982" font-family="Inter, Arial, sans-serif" font-size="25" font-weight="950" fill="#1e365c" text-anchor="middle" opacity="1" letter-spacing="0" >L5</text>
<text x="2650" y="2055" font-family="Georgia, Times New Roman, serif" font-size="24" font-weight="900" fill="#07172f" text-anchor="middle" opacity="1" letter-spacing="0" >Chronicle</text>
<text x="2650" y="2087" font-family="Inter, Arial, sans-serif" font-size="18" font-weight="750" fill="#65708a" text-anchor="middle" opacity="1" letter-spacing="0" >durable memory</text>
<text x="1700" y="2205" font-family="Georgia, Times New Roman, serif" font-size="25" font-weight="900" fill="#1e365c" text-anchor="middle" opacity="1" letter-spacing="0" font-style="italic">Do not remember what was merely said. Remember what was proven, bounded, replayable, and safe to reuse.</text>
<text x="1700" y="2245" font-family="Georgia, Times New Roman, serif" font-size="24" font-weight="950" fill="#b88a23" text-anchor="middle" opacity="1" letter-spacing="0" >Proof today. Capability forever.</text>
</svg>