<svg xmlns="http://www.w3.org/2000/svg" width="1400" height="420" viewBox="0 0 1400 420">
<rect width="1400" height="420" fill="#f7f5ef"/>
<defs><linearGradient id="g" x1="0" x2="1"><stop stop-color="#9b7438"/><stop offset="1" stop-color="#e5c47a"/></linearGradient></defs>
<text x="700" y="62" text-anchor="middle" font-family="Georgia" font-size="42" fill="#111">QUEBEC.AI Capability Compounding Loop</text>
<g font-family="Inter,Arial" font-size="24" fill="#111" text-anchor="middle">
  <g transform="translate(70,130)"><rect width="190" height="120" fill="#fff" stroke="#111" stroke-width="3"/><text x="95" y="52" font-weight="700">Mission</text><text x="95" y="86" font-size="16">enterprise objective</text></g>
  <g transform="translate(320,130)"><rect width="190" height="120" fill="#fff" stroke="#111" stroke-width="3"/><text x="95" y="52" font-weight="700">Agents</text><text x="95" y="86" font-size="16">machine-speed work</text></g>
  <g transform="translate(570,130)"><rect width="190" height="120" fill="#fff" stroke="#111" stroke-width="3"/><text x="95" y="52" font-weight="700">Validators</text><text x="95" y="86" font-size="16">prove what works</text></g>
  <g transform="translate(820,130)"><rect width="190" height="120" fill="#fff" stroke="#111" stroke-width="3"/><text x="95" y="52" font-weight="700">Archive</text><text x="95" y="86" font-size="16">preserve capability</text></g>
  <g transform="translate(1070,130)"><rect width="260" height="120" fill="#fff" stroke="#111" stroke-width="3"/><text x="130" y="52" font-weight="700">Next Cycle</text><text x="130" y="86" font-size="16">starts stronger</text></g>
</g>
<g stroke="url(#g)" stroke-width="6" fill="none" marker-end="url(#arrow)"><defs><marker id="arrow" markerWidth="12" markerHeight="12" refX="10" refY="6" orient="auto"><path d="M0,0 L12,6 L0,12 z" fill="#c6a35a"/></marker></defs><path d="M260 190 H315"/><path d="M510 190 H565"/><path d="M760 190 H815"/><path d="M1010 190 H1065"/><path d="M1210 255 C1120 350 380 350 170 255"/></g>
<text x="700" y="356" text-anchor="middle" font-family="Georgia" font-size="28" fill="#111">Agents discover. Validators prove. Memory preserves. Governance controls. The enterprise compounds.</text>
</svg>